<svg xmlns="http://www.w3.org/2000/svg" viewBox="0 0 960 560"><defs><style>.cls-1{fill:#ecf3f8;}.cls-2{font-size:259.32px;}.cls-2,.cls-7{fill:#0075b1;}.cls-2,.cls-3,.cls-7{font-family:BebasNeueBold, Bebas Neue;font-weight:700;}.cls-3{font-size:21.79px;fill:#082227;letter-spacing:0.02em;}.cls-4{font-size:22px;letter-spacing:0.02em;}.cls-5{letter-spacing:0.02em;}.cls-6{fill:#f1c40f;}.cls-7{font-size:79.1px;}.cls-10,.cls-8,.cls-9{fill:#673a35;}.cls-9{stroke:#673a35;}.cls-10,.cls-9{stroke-miterlimit:10;stroke-width:3px;}.cls-10{stroke:blue;}.cls-11{fill:#2c3e50;}.cls-12{fill:#3fa9f5;}</style></defs><title>cf</title><g id="фон"><rect class="cls-1" x="-43" y="-13" width="1036" height="584"/></g><g id="текст"><text class="cls-2" transform="translate(190 393.49) scale(1.12 1)">К</text><text class="cls-3" transform="translate(429.48 372.77) scale(1.9 1)">к<tspan class="cls-4" x="9.46" y="0">у</tspan><tspan class="cls-5" x="18.87" y="0">баньпроектстрой</tspan></text><path class="cls-6" d="M599.05,235.63s2.67-1.2,6.75-2.75c2-.79,4.43-1.66,7-2.56,1.29-.44,2.61-.92,4-1.36l4.12-1.35,4.14-1.29c1.36-.43,2.72-.81,4-1.2,2.62-.76,5.07-1.43,7.19-2,4.22-1.1,7.09-1.66,7.09-1.66s-2.67,1.2-6.74,2.76c-2,.79-4.43,1.66-7,2.56-1.29.44-2.61.92-4,1.36l-4.12,1.35-4.14,1.29c-1.36.43-2.72.81-4,1.2-2.62.76-5.07,1.43-7.19,2C601.92,235.07,599.05,235.63,599.05,235.63Z"/><path class="cls-6" d="M610,251.81s1.1-.26,3-.67,4.71-1,8-1.63,7.23-1.36,11.41-2.08c2.09-.35,4.25-.74,6.45-1.09l6.67-1.07,6.68-1c2.2-.34,4.37-.62,6.47-.92,4.2-.58,8.13-1.08,11.5-1.47s6.19-.66,8.16-.88,3.1-.28,3.1-.28-1.1.26-3,.67-4.71,1-8,1.63-7.23,1.36-11.41,2.08c-2.09.35-4.25.74-6.45,1.09l-6.67,1.07-6.68,1c-2.2.34-4.37.62-6.47.92-4.2.58-8.13,1.08-11.5,1.47s-6.19.66-8.16.88S610,251.81,610,251.81Z"/><path class="cls-6" d="M607.7,307.12s3.74.55,9.29,1.62c2.78.53,6,1.19,9.46,1.94,1.72.38,3.51.75,5.31,1.18l5.47,1.27,5.46,1.33c1.8.43,3.56.91,5.27,1.34,3.42.89,6.6,1.75,9.32,2.53,5.44,1.54,9,2.74,9,2.74s-3.74-.54-9.29-1.62c-2.78-.53-6-1.19-9.46-1.94-1.72-.38-3.51-.75-5.31-1.18l-5.47-1.27-5.46-1.33c-1.8-.43-3.56-.91-5.27-1.34-3.42-.89-6.6-1.75-9.32-2.53C611.28,308.31,607.7,307.12,607.7,307.12Z"/><path class="cls-6" d="M610.57,285.91s1.22,0,3.34,0,5.16,0,8.79.16,7.88.24,12.42.45l7,.34,7.22.4,7.22.47c2.38.15,4.72.35,7,.51,4.53.35,8.76.71,12.38,1.06s6.64.7,8.75.91,3.31.4,3.31.4-1.22,0-3.34,0-5.16,0-8.79-.15-7.88-.24-12.42-.45c-2.27-.11-4.62-.2-7-.34l-7.22-.41-7.22-.47-7-.51c-4.53-.35-8.76-.71-12.38-1.06s-6.64-.7-8.75-.91S610.57,285.91,610.57,285.91Z"/><path class="cls-6" d="M613,267.67s1.63-.09,4.47-.19,6.91-.27,11.78-.38,10.56-.24,16.66-.31l9.39-.09,9.7,0,9.7,0,9.39.09c6.09.07,11.78.18,16.66.31s8.94.29,11.78.38,4.47.19,4.47.19-1.62.09-4.47.19-6.91.27-11.78.38-10.56.24-16.66.31l-9.39.09-9.7,0-9.7,0-9.39-.09c-6.09-.07-11.78-.18-16.66-.31s-8.94-.29-11.78-.38S613,267.67,613,267.67Z"/><text class="cls-7" transform="translate(315.63 393.72) scale(1.64 1)">пс</text></g><g id="сонце"><circle class="cls-6" cx="537.62" cy="273.5" r="61.43"/><circle class="cls-1" cx="529.91" cy="273.5" r="61.43"/></g><g id="домик"><path class="cls-8" d="M383.58,304.55,441.7,236,360,224.49c-21.8,22.18-43.7,45-65.54,67.47"/><path class="cls-8" d="M485.2,280.86l38.39-47.37-57-5.85C452,243,437.5,258.86,423,274.46"/><path class="cls-1" d="M485.2,280.86l-1.61,1.88q-21.33,25-41.89,50.23l-47.43-39.55,45.7-54.8Z"/><line class="cls-9" x1="440.7" y1="237.1" x2="496.14" y2="292.54"/><line class="cls-10" x1="219" y1="105.67" x2="219" y2="106.33"/><line class="cls-9" x1="522.56" y1="234.61" x2="562.97" y2="275.02"/></g><g id="викна"><polygon class="cls-11" points="452 334.25 430 337.55 430 306.5 452 303 452 334.25"/><polygon class="cls-11" points="533 306.72 518 308.91 518 288.32 533 286 533 306.72"/><polygon class="cls-12" points="440 298.6 430 300.33 430 289.64 440 287.88 440 298.6"/><polygon class="cls-12" points="452 296.78 442 298.33 442 287.64 452 285.88 452 296.78"/><polygon class="cls-12" points="440 286.16 430 287.88 430 277.19 440 275.43 440 286.16"/><polygon class="cls-12" points="452 284.33 442 285.88 442 275.19 452 273.43 452 284.33"/><polygon class="cls-12" points="524.82 282.22 518 283.4 518 276.11 524.82 274.91 524.82 282.22"/><polygon class="cls-12" points="533 280.98 526.18 282.04 526.18 274.75 533 273.55 533 280.98"/><polygon class="cls-12" points="524.82 273.74 518 274.91 518 267.63 524.82 266.43 524.82 273.74"/><polygon class="cls-12" points="533 272.49 526.18 273.55 526.18 266.26 533 265.06 533 272.49"/></g></svg>